<?xml version="1.0" encoding="UTF-8" standalone="no"?>
<svg version="1.1" xmlns="http://www.w3.org/2000/svg" xmlns:svg="http://www.w3.org/2000/svg" width="100mm" height="100mm" viewBox="0 0 100 100" >
    <rect style="fill:#55a63a" width="100" height="100" x="0" y="0" rx="12" ry="12"/>
    <path style="fill:#477f3b" d="m 12,0 c -6.5,0 -12,6.5 -12,12 V 50 H 50 V 0 Z"/>
    <path style="fill:#ffffff" d="m 10,28.5 v -7 h 11.5 v -11.5 h 7 v 11.5 h 11.5 v 7 h -11.5 v 11.5 h -7 v -11.5 z" />
    <path style="fill:#27aae1" d="M 50,50 V 100 h 38 c 6.5,0 12,-6.5 12,-12 V 50 H 50 Z" />
    <rect style="fill:#ffffff" width="30" height="7" x="10" y="71.5" />
    <rect style="fill:#ffffff" width="30" height="7" x="60" y="21.5" />
    <ellipse style="fill:#ffffff" cx="75" cy="15" rx="3.5" ry="3.5" />
    <ellipse style="fill:#ffffff" cx="75" cy="35" rx="3.5" ry="3.5"/>
    <path style="fill:#ffffff" d="m 60.088065,57.478095 v 28.59788 h 5.05179 v -10.67481 c 1.92062,0 3.5768,-1e-4 5.02318,-0.0324 l 6.82748,9.06031 -6.55836,8.703155 h 5.50077 l 3.80798,-5.053395 3.80798,5.053395 h 5.4195 l -6.51783,-8.649295 6.76309,-8.97485 h -5.50079 l -4.01269,5.32508 -4.44877,-5.90385 c 1.49045,-0.30209 2.65203,-0.79584 3.67858,-1.61252 2.11147,-1.67979 3.17929,-4.28118 3.18329,-6.67841 0.009,-5.12781 -3.75083,-9.16029 -8.83135,-9.16029 z m 5.05179,4.40524 h 7.28184 v 7.7e-4 c 2.56625,0 4.46524,2.03696 4.46089,4.62745 0.004,2.50451 -1.89464,4.4742 -4.46089,4.4742 h -7.28184 z"/>
</svg>
