<?xml version="1.0" standalone="no"?>
<!DOCTYPE svg PUBLIC "-//W3C//DTD SVG 20010904//EN"
 "http://www.w3.org/TR/2001/REC-SVG-20010904/DTD/svg10.dtd">
<svg version="1.0" xmlns="http://www.w3.org/2000/svg"
 width="700.000000pt" height="700.000000pt" viewBox="0 0 700.000000 700.000000"
 preserveAspectRatio="xMidYMid meet">
<metadata>
Created by potrace 1.14, written by Peter Selinger 2001-2017
</metadata>
<g transform="translate(0.000000,700.000000) scale(0.100000,-0.100000)"
fill="#000000" stroke="none">
<path d="M712 6989 c-330 -55 -597 -301 -685 -630 l-22 -84 0 -2775 0 -2775
22 -84 c82 -305 309 -532 614 -614 l84 -22 2775 0 2775 0 84 22 c305 82 532
309 614 614 l22 84 0 2775 0 2775 -22 84 c-81 303 -303 527 -609 613 l-79 23
-2760 1 c-1588 1 -2783 -2 -2813 -7z m1288 -1089 l0 -400 400 0 400 0 0 -250
0 -250 -400 0 -400 0 0 -400 0 -400 -250 0 -250 0 0 400 0 400 -400 0 -400 0
0 250 0 250 400 0 400 0 0 400 0 400 250 0 250 0 0 -400z m3328 285 c94 -28
172 -135 172 -235 0 -87 -63 -185 -142 -223 -124 -59 -272 -6 -333 118 -26 54
-26 156 0 210 41 83 131 142 221 144 17 1 53 -6 82 -14z m972 -935 l0 -250
-1050 0 -1050 0 0 250 0 250 1050 0 1050 0 0 -250z m-972 -465 c94 -28 172
-135 172 -235 0 -87 -63 -185 -142 -223 -124 -59 -272 -6 -333 118 -26 54 -26
156 0 210 41 83 131 142 221 144 17 1 53 -6 82 -14z m-46 -1824 c121 -31 193
-73 283 -165 91 -92 133 -167 165 -292 82 -319 -89 -642 -388 -734 -29 -9 -53
-21 -53 -26 0 -13 280 -384 290 -384 5 0 69 81 142 180 l134 179 198 1 c156 0
197 -3 191 -12 -4 -7 -110 -149 -236 -316 -140 -186 -226 -307 -222 -315 4 -7
103 -138 219 -292 116 -154 214 -286 219 -293 6 -9 -34 -12 -187 -12 l-195 0
-127 170 c-70 93 -130 170 -134 170 -3 -1 -53 -63 -109 -139 -57 -77 -116
-153 -130 -170 l-27 -32 -193 3 -193 3 227 303 226 302 -236 315 -236 315
-175 0 -175 0 0 -375 0 -375 -180 0 -180 0 0 1005 0 1005 503 0 c465 0 510 -1
579 -19z m-2482 -1211 l0 -250 -1050 0 -1050 0 0 250 0 250 1050 0 1050 0 0
-250z"/>
<path d="M4560 2351 l0 -311 293 0 294 0 61 31 c112 56 167 150 166 285 -2
117 -65 221 -169 277 -38 21 -55 22 -342 25 l-303 3 0 -310z"/>
</g>
</svg>
